# Blender v2.91.0 OBJ File: ''
# www.blender.org
mtllib icosphere.mtl
o Icosphere.001
v 1.000000 0.000000 0.000000
v 0.850654 0.309011 -0.425323
v 0.850654 0.499995 0.162456
v 0.447220 0.525725 -0.723607
v 0.525736 0.000000 -0.850648
v 0.850652 0.000000 0.525730
v 0.850654 -0.499995 0.162456
v 0.850654 -0.309011 -0.425323
v 0.000000 0.309013 -0.951058
v 0.447220 0.850649 0.276388
v 0.525738 0.809012 -0.262869
v 0.000000 1.000000 0.000000
v 0.447216 0.000000 0.894426
v 0.525736 0.499997 0.688189
v -0.000000 0.309013 0.951058
v 0.447220 -0.850649 0.276388
v 0.525736 -0.499997 0.688189
v -0.000000 -0.809017 0.587786
v 0.447220 -0.525725 -0.723607
v 0.525738 -0.809012 -0.262869
v 0.000000 -0.809017 -0.587786
v 0.000000 0.809017 -0.587786
v -0.000000 0.809017 0.587786
v -0.000000 -0.309013 0.951058
v 0.000000 -1.000000 0.000000
v 0.000000 -0.309013 -0.951058
v -0.447220 0.850649 -0.276388
v -0.525736 0.499997 -0.688189
v -0.850654 0.499995 -0.162456
v -0.447220 0.525725 0.723607
v -0.525738 0.809012 0.262869
v -0.850654 0.309011 0.425323
v -0.447220 -0.525725 0.723607
v -0.525736 0.000000 0.850648
v -0.850654 -0.309011 0.425323
v -0.447220 -0.850649 -0.276388
v -0.525738 -0.809012 0.262869
v -0.850654 -0.499995 -0.162456
v -0.447216 0.000000 -0.894426
v -0.525736 -0.499997 -0.688189
v -0.850652 0.000000 -0.525730
v -1.000000 0.000000 -0.000000
vt 0.818181 0.000000
vt 0.863635 0.078731
vt 0.772726 0.078731
vt 0.727272 0.157461
vt 0.636363 0.157461
vt 0.681818 0.078731
vt 0.090909 0.000000
vt 0.136363 0.078731
vt 0.045454 0.078731
vt 0.272727 0.000000
vt 0.318182 0.078731
vt 0.227273 0.078731
vt 0.454545 0.000000
vt 0.500000 0.078731
vt 0.409090 0.078731
vt 0.681818 0.236191
vt 0.909090 0.157461
vt 0.863635 0.236191
vt 0.818181 0.157461
vt 0.181818 0.157461
vt 0.136363 0.236191
vt 0.090909 0.157461
vt 0.363636 0.157461
vt 0.318182 0.236191
vt 0.272727 0.157461
vt 0.545454 0.157461
vt 0.500000 0.236191
vt 0.454545 0.157461
vt 0.772726 0.236191
vt 0.954545 0.236191
vt 0.227273 0.236191
vt 0.409090 0.236191
vt 0.590909 0.236191
vt 0.818181 0.314921
vt 0.772726 0.393651
vt 0.727272 0.314921
vt 1.000000 0.314921
vt 0.954545 0.393651
vt 0.909091 0.314921
vt 0.272727 0.314921
vt 0.227273 0.393651
vt 0.181818 0.314921
vt 0.454545 0.314921
vt 0.409090 0.393651
vt 0.363636 0.314921
vt 0.636363 0.314921
vt 0.590909 0.393651
vt 0.545454 0.314921
vt 0.545454 0.472382
vt 0.500000 0.393651
vt 0.363636 0.472382
vt 0.318182 0.393651
vt 0.181818 0.472382
vt 0.136363 0.393651
vt 0.090909 0.314921
vt 0.909090 0.472382
vt 0.863635 0.393651
vt 0.727272 0.472382
vt 0.681818 0.393651
vt 0.045454 0.236191
vt 0.000000 0.157461
vt 0.590909 0.078731
vt 0.636363 0.000000
vn -0.9435 -0.3151 0.1024
vn -0.6617 -0.2680 0.7002
vn -0.9435 -0.1947 -0.2680
vn -0.9435 0.1947 -0.2680
vn -0.9435 0.3151 0.1024
vn -0.3304 -0.2680 0.9050
vn -0.3304 -0.9435 0.0247
vn -0.3304 -0.3151 -0.8897
vn -0.3304 0.7488 -0.5746
vn -0.3304 0.7779 0.5346
vn -0.1256 -0.5831 0.8026
vn -0.1256 -0.9435 -0.3066
vn -0.1256 0.0000 -0.9921
vn -0.1256 0.9435 -0.3066
vn -0.1256 0.5831 0.8026
vn 0.6617 -0.6284 0.4089
vn 0.6617 -0.5831 -0.4713
vn 0.6617 0.2680 -0.7002
vn 0.6617 0.7488 0.0385
vn 0.6617 0.1947 0.7240
vn 0.9435 0.1947 0.2680
vn 0.7947 0.3568 0.4911
vn 0.6617 0.6284 0.4089
vn 0.9435 0.3151 -0.1024
vn 0.7947 0.5773 -0.1876
vn 0.6617 0.5831 -0.4713
vn 0.9435 0.0000 -0.3313
vn 0.7947 0.0000 -0.6071
vn 0.6617 -0.2680 -0.7002
vn 0.9435 -0.3151 -0.1024
vn 0.7947 -0.5773 -0.1876
vn 0.6617 -0.7488 0.0385
vn 0.9435 -0.1947 0.2680
vn 0.7947 -0.3568 0.4911
vn 0.6617 -0.1947 0.7240
vn 0.3304 0.3151 0.8897
vn 0.1876 0.5773 0.7947
vn 0.3304 0.7488 0.5746
vn 0.3304 0.9435 -0.0247
vn 0.1876 0.9342 -0.3035
vn 0.3304 0.7779 -0.5346
vn 0.3304 0.2680 -0.9050
vn 0.1876 0.0000 -0.9822
vn 0.3304 -0.2680 -0.9050
vn 0.3304 -0.7779 -0.5346
vn 0.1876 -0.9342 -0.3035
vn 0.3304 -0.9435 -0.0247
vn 0.3304 -0.7488 0.5746
vn 0.1876 -0.5773 0.7947
vn 0.3304 -0.3151 0.8897
vn 0.1256 0.9435 0.3066
vn -0.1876 0.9342 0.3035
vn -0.3304 0.9435 0.0247
vn 0.1256 0.5831 -0.8026
vn -0.1876 0.5773 -0.7947
vn -0.3304 0.3151 -0.8897
vn 0.1256 -0.5831 -0.8026
vn -0.1876 -0.5773 -0.7947
vn -0.3304 -0.7488 -0.5746
vn 0.1256 -0.9435 0.3066
vn -0.1876 -0.9342 0.3035
vn -0.3304 -0.7779 0.5346
vn 0.1256 0.0000 0.9921
vn -0.1876 0.0000 0.9822
vn -0.3304 0.2680 0.9050
vn -0.6617 0.5831 0.4713
vn -0.7947 0.5773 0.1876
vn -0.6617 0.7488 -0.0385
vn -0.6617 0.6284 -0.4089
vn -0.7947 0.3568 -0.4911
vn -0.6617 0.1947 -0.7240
vn -0.6617 -0.1947 -0.7240
vn -0.7947 -0.3568 -0.4911
vn -0.6617 -0.6284 -0.4089
vn -0.6617 0.2680 0.7002
vn -0.7947 0.0000 0.6071
vn -0.9435 0.0000 0.3313
vn -0.6617 -0.7488 -0.0385
vn -0.7947 -0.5773 0.1876
vn -0.6617 -0.5831 0.4713
usemtl None
s 1
f 1/1/1 3/2/1 2/3/1
f 4/4/2 5/5/2 2/6/2
f 1/7/3 6/8/3 3/9/3
f 1/10/4 7/11/4 6/12/4
f 1/13/5 8/14/5 7/15/5
f 4/4/6 9/16/6 5/5/6
f 10/17/7 12/18/7 11/19/7
f 13/20/8 15/21/8 14/22/8
f 16/23/9 18/24/9 17/25/9
f 19/26/10 21/27/10 20/28/10
f 4/4/11 22/29/11 9/16/11
f 10/17/12 23/30/12 12/18/12
f 13/20/13 24/31/13 15/21/13
f 16/23/14 25/32/14 18/24/14
f 19/26/15 26/33/15 21/27/15
f 27/34/16 29/35/16 28/36/16
f 30/37/17 32/38/17 31/39/17
f 33/40/18 35/41/18 34/42/18
f 36/43/19 38/44/19 37/45/19
f 39/46/20 41/47/20 40/48/20
f 41/47/21 42/49/21 38/50/21
f 41/47/22 38/50/22 40/48/22
f 40/48/23 38/50/23 36/43/23
f 38/44/24 42/51/24 35/52/24
f 38/44/25 35/52/25 37/45/25
f 37/45/26 35/52/26 33/40/26
f 35/41/27 42/53/27 32/54/27
f 35/41/28 32/54/28 34/42/28
f 34/42/29 32/54/29 30/55/29
f 32/38/30 42/56/30 29/57/30
f 32/38/31 29/57/31 31/39/31
f 31/39/32 29/57/32 27/34/32
f 29/35/33 42/58/33 41/59/33
f 29/35/34 41/59/34 28/36/34
f 28/36/35 41/59/35 39/46/35
f 26/33/36 39/46/36 40/48/36
f 26/33/37 40/48/37 21/27/37
f 21/27/38 40/48/38 36/43/38
f 25/32/39 36/43/39 37/45/39
f 25/32/40 37/45/40 18/24/40
f 18/24/41 37/45/41 33/40/41
f 24/31/42 33/40/42 34/42/42
f 24/31/43 34/42/43 15/21/43
f 15/21/44 34/42/44 30/55/44
f 23/30/45 30/37/45 31/39/45
f 23/30/46 31/39/46 12/18/46
f 12/18/47 31/39/47 27/34/47
f 22/29/48 27/34/48 28/36/48
f 22/29/49 28/36/49 9/16/49
f 9/16/50 28/36/50 39/46/50
f 21/27/51 36/43/51 25/32/51
f 21/27/52 25/32/52 20/28/52
f 20/28/53 25/32/53 16/23/53
f 18/24/54 33/40/54 24/31/54
f 18/24/55 24/31/55 17/25/55
f 17/25/56 24/31/56 13/20/56
f 15/21/57 30/55/57 23/60/57
f 15/21/58 23/60/58 14/22/58
f 14/22/59 23/60/59 10/61/59
f 12/18/60 27/34/60 22/29/60
f 12/18/61 22/29/61 11/19/61
f 11/19/62 22/29/62 4/4/62
f 9/16/63 39/46/63 26/33/63
f 9/16/64 26/33/64 5/5/64
f 5/5/65 26/33/65 19/26/65
f 8/14/66 19/26/66 20/28/66
f 8/14/67 20/28/67 7/15/67
f 7/15/68 20/28/68 16/23/68
f 7/11/69 16/23/69 17/25/69
f 7/11/70 17/25/70 6/12/70
f 6/12/71 17/25/71 13/20/71
f 6/8/72 13/20/72 14/22/72
f 6/8/73 14/22/73 3/9/73
f 3/9/74 14/22/74 10/61/74
f 5/5/75 19/26/75 8/62/75
f 5/5/76 8/62/76 2/6/76
f 2/6/77 8/62/77 1/63/77
f 3/2/78 10/17/78 11/19/78
f 3/2/79 11/19/79 2/3/79
f 2/3/80 11/19/80 4/4/80
