# Blender v2.91.0 OBJ File: ''
# www.blender.org
mtllib sphere.mtl
o Sphere_Sphere.001
v 0.707107 0.000000 0.707107
v 1.000000 0.000000 -0.000000
v 0.707107 0.000000 -0.707107
v 0.500000 -0.500000 0.707107
v 0.707107 -0.707107 -0.000000
v 0.500000 -0.500000 -0.707107
v -0.000000 -0.707107 0.707107
v -0.000000 -1.000000 -0.000000
v -0.000000 -0.707107 -0.707107
v -0.500000 -0.500000 0.707107
v -0.707107 -0.707107 -0.000000
v -0.500000 -0.500000 -0.707107
v -0.000000 0.000000 -1.000000
v -0.707107 -0.000000 0.707107
v -1.000000 -0.000000 -0.000000
v -0.707107 -0.000000 -0.707107
v -0.000000 0.000000 1.000000
v -0.500000 0.500000 0.707107
v -0.707107 0.707107 -0.000000
v -0.500000 0.500000 -0.707107
v -0.000000 0.707107 0.707107
v -0.000000 1.000000 -0.000000
v -0.000000 0.707107 -0.707107
v 0.500000 0.500000 0.707107
v 0.707107 0.707107 -0.000000
v 0.500000 0.500000 -0.707107
vt 1.500000 0.250000
vt 1.500000 0.500000
vt 1.250000 0.500000
vt 1.250000 0.250000
vt 1.500000 0.750000
vt 1.375000 1.000000
vt 1.250000 0.750000
vt 1.375000 0.000000
vt 1.000000 0.500000
vt 1.000000 0.250000
vt 1.125000 1.000000
vt 1.000000 0.750000
vt 1.125000 0.000000
vt 0.750000 0.500000
vt 0.750000 0.250000
vt 0.875000 1.000000
vt 0.750000 0.750000
vt 0.875000 0.000000
vt 0.500000 0.500000
vt 0.500000 0.250000
vt 0.625000 1.000000
vt 0.500000 0.750000
vt 0.625000 0.000000
vt 0.250000 0.500000
vt 0.250000 0.250000
vt 0.375000 1.000000
vt 0.250000 0.750000
vt 0.375000 0.000000
vt 0.000000 0.500000
vt 0.000000 0.250000
vt 0.125000 1.000000
vt 0.000000 0.750000
vt 0.125000 0.000000
vt 2.000000 0.500000
vt 2.000000 0.750000
vt 1.750000 0.750000
vt 1.750000 0.500000
vt 2.000000 0.250000
vt 1.750000 0.250000
vt 1.875000 1.000000
vt 1.875000 0.000000
vt 1.625000 0.000000
vt 1.625000 1.000000
vn 0.8629 -0.3574 -0.3574
vn 0.3780 -0.1566 0.9125
vn 0.3780 -0.1566 -0.9125
vn 0.8629 -0.3574 0.3574
vn 0.3574 -0.8629 -0.3574
vn 0.1566 -0.3780 0.9125
vn 0.1566 -0.3780 -0.9125
vn 0.3574 -0.8629 0.3574
vn -0.3574 -0.8629 -0.3574
vn -0.1566 -0.3780 0.9125
vn -0.1566 -0.3780 -0.9125
vn -0.3574 -0.8629 0.3574
vn -0.8629 -0.3574 -0.3574
vn -0.3780 -0.1566 0.9125
vn -0.3780 -0.1566 -0.9125
vn -0.8629 -0.3574 0.3574
vn -0.8629 0.3574 -0.3574
vn -0.3780 0.1566 0.9125
vn -0.3780 0.1566 -0.9125
vn -0.8629 0.3574 0.3574
vn -0.3574 0.8629 -0.3574
vn -0.1566 0.3780 0.9125
vn -0.1566 0.3780 -0.9125
vn -0.3574 0.8629 0.3574
vn 0.3574 0.8629 0.3574
vn 0.3574 0.8629 -0.3574
vn 0.1566 0.3780 0.9125
vn 0.1566 0.3780 -0.9125
vn 0.3780 0.1566 -0.9125
vn 0.8629 0.3574 0.3574
vn 0.8629 0.3574 -0.3574
vn 0.3780 0.1566 0.9125
usemtl None
s off
f 3/1/1 2/2/1 5/3/1 6/4/1
f 1/5/2 17/6/2 4/7/2
f 13/8/3 3/1/3 6/4/3
f 2/2/4 1/5/4 4/7/4 5/3/4
f 6/4/5 5/3/5 8/9/5 9/10/5
f 4/7/6 17/11/6 7/12/6
f 13/13/7 6/4/7 9/10/7
f 5/3/8 4/7/8 7/12/8 8/9/8
f 9/10/9 8/9/9 11/14/9 12/15/9
f 7/12/10 17/16/10 10/17/10
f 13/18/11 9/10/11 12/15/11
f 8/9/12 7/12/12 10/17/12 11/14/12
f 12/15/13 11/14/13 15/19/13 16/20/13
f 10/17/14 17/21/14 14/22/14
f 13/23/15 12/15/15 16/20/15
f 11/14/16 10/17/16 14/22/16 15/19/16
f 16/20/17 15/19/17 19/24/17 20/25/17
f 14/22/18 17/26/18 18/27/18
f 13/28/19 16/20/19 20/25/19
f 15/19/20 14/22/20 18/27/20 19/24/20
f 20/25/21 19/24/21 22/29/21 23/30/21
f 18/27/22 17/31/22 21/32/22
f 13/33/23 20/25/23 23/30/23
f 19/24/24 18/27/24 21/32/24 22/29/24
f 22/34/25 21/35/25 24/36/25 25/37/25
f 23/38/26 22/34/26 25/37/26 26/39/26
f 21/35/27 17/40/27 24/36/27
f 13/41/28 23/38/28 26/39/28
f 13/42/29 26/39/29 3/1/29
f 25/37/30 24/36/30 1/5/30 2/2/30
f 26/39/31 25/37/31 2/2/31 3/1/31
f 24/36/32 17/43/32 1/5/32
