# Blender v2.91.0 OBJ File: ''
# www.blender.org
o Cylinder.001_Cylinder.007
v -0.499999 0.000000 -0.000000
v -0.499999 0.333334 -0.000000
v 0.500000 0.333333 -0.000000
v 0.500000 -0.000000 -0.000000
v -0.250000 0.333334 -0.433012
v -0.250000 0.000000 -0.433012
v 0.250000 0.000000 -0.433012
v 0.250000 0.333334 -0.433012
v 0.250000 -0.000000 0.433013
v 0.250000 0.333333 0.433013
v -0.250000 0.333333 0.433013
v -0.250000 -0.000000 0.433013
v 0.500000 0.000000 0.000000
v 0.500000 0.333333 0.000000
v -0.500000 0.000000 0.000000
v -0.500000 0.333333 0.000000
v 0.250000 0.000000 -0.433012
v 0.250000 0.333334 -0.433012
v -0.250000 0.333333 0.433013
v -0.250000 -0.000000 0.433013
v -0.249999 0.000000 -0.433012
v -0.249999 0.333334 -0.433012
v 0.250000 0.333333 0.433013
v 0.250000 -0.000000 0.433013
vt 0.666667 0.200000
vt 0.666667 0.400001
vt -0.000000 0.399999
vt 0.000000 0.200000
vt 0.666667 1.000000
vt 0.666667 0.800000
vt 0.333333 0.800000
vt 0.333333 1.000000
vt 0.666667 0.800000
vt 0.666667 0.600000
vt 0.333333 0.600000
vt 0.333333 0.800000
vt 1.000000 0.800000
vt 1.000000 0.600000
vt 0.666667 0.800000
vt 0.666667 1.000000
vt 1.000000 1.000000
vt 1.000000 0.800000
vt 0.000000 0.800000
vt 0.000000 1.000000
vt 0.000000 0.600000
vt 0.000000 0.800000
vt 0.666667 0.400000
vt 0.666667 0.600001
vt -0.000000 0.599999
vt 0.000000 0.400000
vt 0.666667 0.000000
vt 0.666667 0.200001
vt -0.000000 0.199999
vt 0.000000 -0.000000
vn -0.3826 0.9225 -0.0516
vn -0.4747 0.7308 -0.4906
vn 0.3172 0.5917 -0.7412
vn 0.1506 0.0000 -0.9886
vn -0.0579 0.6938 0.7178
vn -0.9305 0.0003 0.3664
vn 0.9224 -0.0000 0.3863
vn -0.2967 0.8255 0.4800
vn 0.1983 -0.0000 0.9801
vn 0.3413 0.7051 0.6216
vn -0.3413 0.7051 0.6216
vn -0.1983 -0.0000 0.9801
vn 0.9569 0.0000 0.2903
vn 0.7267 0.5829 0.3635
vn -0.9569 0.2903 0.0018
vn -0.6962 0.7179 -0.0000
vn -0.6717 0.5723 -0.4704
vn -0.6946 0.0000 -0.7194
vn 0.0980 0.0000 0.9952
vn -0.6055 0.6791 0.4150
vn 0.1974 0.9243 -0.3267
vn 0.6617 0.7281 -0.1787
vn 0.4805 0.5833 0.6549
vn 0.7985 0.0000 0.6020
vn -0.1069 0.9206 -0.3756
vn 0.1868 0.7229 -0.6652
vn 0.8022 0.5914 -0.0815
vn 0.9415 0.0000 -0.3370
s 1
f 1/1/1 2/2/2 3/3/3 4/4/4
f 5/5/5 6/6/6 7/7/7 8/8/8
f 9/9/9 10/10/10 11/11/11 12/12/12
f 13/13/13 14/14/14 10/10/10 9/9/9
f 15/15/15 16/16/16 5/17/17 6/18/18
f 13/19/19 14/20/20 8/8/8 7/7/7
f 16/21/16 15/22/15 12/12/12 11/11/11
f 17/23/21 18/24/22 19/25/23 20/26/24
f 21/27/25 22/28/26 23/29/27 24/30/28
o Cylinder.002_Cylinder.012
v -0.499999 0.000000 -0.000000
v -0.499999 0.333334 -0.000000
v 0.500000 0.333333 -0.000000
v 0.500000 -0.000000 -0.000000
v -0.250000 0.333334 -0.433012
v -0.250000 0.000000 -0.433012
v 0.250000 0.000000 -0.433012
v 0.250000 0.333334 -0.433012
v 0.250000 -0.000000 0.433013
v 0.250000 0.333333 0.433013
v -0.250000 0.333333 0.433013
v -0.250000 -0.000000 0.433013
v 0.500000 0.000000 0.000000
v 0.500000 0.333333 0.000000
v -0.500000 0.000000 0.000000
v -0.500000 0.333333 0.000000
v 0.250000 0.000000 -0.433012
v 0.250000 0.333334 -0.433012
v -0.250000 0.333333 0.433013
v -0.250000 -0.000000 0.433013
v -0.249999 0.000000 -0.433012
v -0.249999 0.333334 -0.433012
v 0.250000 0.333333 0.433013
v 0.250000 -0.000000 0.433013
vt 0.666667 0.200000
vt 0.000000 0.200000
vt -0.000000 0.399999
vt 0.666667 0.400001
vt 0.666667 1.000000
vt 0.333333 1.000000
vt 0.333333 0.800000
vt 0.666667 0.800000
vt 0.666667 0.800000
vt 0.333333 0.800000
vt 0.333333 0.600000
vt 0.666667 0.600000
vt 1.000000 0.800000
vt 1.000000 0.600000
vt 0.666667 0.800000
vt 1.000000 0.800000
vt 1.000000 1.000000
vt 0.666667 1.000000
vt 0.000000 0.800000
vt 0.000000 1.000000
vt 0.000000 0.600000
vt 0.000000 0.800000
vt 0.666667 0.400000
vt 0.000000 0.400000
vt -0.000000 0.599999
vt 0.666667 0.600001
vt 0.666667 0.000000
vt 0.000000 -0.000000
vt -0.000000 0.199999
vt 0.666667 0.200001
vn -0.3827 -0.9224 0.0516
vn 0.5926 0.0000 0.8055
vn -0.2584 0.1406 0.9557
vn 0.5882 -0.0434 0.8076
vn -0.0012 0.0152 -0.9999
vn 0.4918 -0.1850 -0.8508
vn -0.3791 0.0000 -0.9253
vn 0.3989 0.0000 -0.9170
vn 0.5529 -0.0004 -0.8333
vn -0.5529 0.0000 -0.8333
vn 0.5027 0.0024 -0.8645
vn -0.5027 0.0025 -0.8645
vn -0.4714 0.0000 -0.8819
vn -0.8482 0.1594 -0.5051
vn 0.4714 -0.8819 -0.0055
vn 0.9998 0.0000 0.0176
vn 0.8640 0.1684 0.4745
vn 0.9999 -0.0153 0.0000
vn 0.6344 0.0000 -0.7730
vn 0.8669 0.0355 -0.4971
vn 0.1069 -0.9206 -0.3756
vn -0.9903 0.0000 0.1390
vn -0.7106 0.1459 -0.6883
vn -0.9962 -0.0479 0.0728
vn -0.1974 -0.9243 -0.3267
vn -0.4275 0.0000 0.9040
vn -0.9519 0.1336 0.2756
vn -0.4197 -0.0351 0.9070
s 1
f 25/31/29 28/32/30 27/33/31 26/34/32
f 29/35/33 32/36/34 31/37/35 30/38/36
f 33/39/37 36/40/38 35/41/39 34/42/40
f 37/43/41 33/39/37 34/42/40 38/44/42
f 39/45/43 30/46/44 29/47/45 40/48/46
f 37/49/47 31/37/35 32/36/34 38/50/48
f 40/51/46 35/41/39 36/40/38 39/52/43
f 41/53/49 44/54/50 43/55/51 42/56/52
f 45/57/53 48/58/54 47/59/55 46/60/56
