# Blender v2.91.0 OBJ File: ''
# www.blender.org
o Root_1_Plane.002
v -0.142019 -0.000000 0.166188
v -0.088518 -0.000000 0.245732
v -0.000875 0.103648 0.248038
v -0.019407 0.329753 0.151983
v -0.008165 -0.000000 0.418516
v -0.008743 0.039979 0.314381
v -0.039153 -0.000000 0.319185
v 0.053844 -0.000000 0.236928
v 0.104213 -0.000000 0.143778
v 0.034229 -0.000000 0.318872
vt 0.000000 0.918431
vt 0.223558 0.628905
vt 0.584993 0.620511
vt 0.497953 0.970135
vt 0.729321 0.000000
vt 0.641160 0.379034
vt 0.519620 0.361548
vt 0.821502 0.660950
vt 1.000000 1.000000
vt 0.828410 0.362687
vn -0.6434 0.3311 0.6902
vn -0.7593 0.6060 0.2369
vn 0.8059 0.3091 0.5050
vn 0.6400 0.7185 0.2723
vn 0.7778 0.5123 0.3641
vn -0.6816 0.5682 0.4611
s 1
f 1/1/1 2/2/1 3/3/1 4/4/1
f 5/5/2 6/6/2 7/7/2
f 4/4/3 3/3/3 8/8/3 9/9/3
f 5/5/4 10/10/4 6/6/4
f 6/6/5 10/10/5 8/8/5 3/3/5
f 7/7/6 6/6/6 3/3/6 2/2/6
