# Blender v2.91.0 OBJ File: ''
# www.blender.org
o Root_3_Plane.002
v -0.000969 -0.000000 0.425944
v 0.040467 -0.000000 0.297063
v 0.001690 0.040556 0.304480
v -0.083951 -0.000000 0.260925
v -0.004003 0.099251 0.250284
v 0.011335 0.303268 0.154589
v -0.119689 -0.000000 0.163153
v -0.058814 -0.000000 0.308106
v 0.068687 -0.000000 0.260423
v 0.133912 -0.000000 0.138802
vt 0.468137 0.000000
vt 0.631527 0.448841
vt 0.478622 0.423010
vt 0.140922 0.574695
vt 0.456173 0.611753
vt 0.516654 0.945020
vt 0.000000 0.915195
vt 0.240042 0.410382
vt 0.742805 0.576443
vt 1.000000 1.000000
vn 0.7238 0.6495 0.2327
vn -0.7473 0.4164 0.5179
vn -0.5682 0.6254 0.5349
vn -0.5271 0.8095 0.2587
vn 0.7275 0.3446 0.5932
vn 0.6656 0.5407 0.5144
s 1
f 1/1/1 2/2/1 3/3/1
f 4/4/2 5/5/2 6/6/2 7/7/2
f 8/8/3 3/3/3 5/5/3 4/4/3
f 3/3/4 8/8/4 1/1/4
f 6/6/5 5/5/5 9/9/5 10/10/5
f 5/5/6 3/3/6 2/2/6 9/9/6
