# Blender v2.91.0 OBJ File: ''
# www.blender.org
o Root_1_Plane.001
v -0.142019 -0.000000 0.166188
v -0.086972 -0.000000 0.245732
v 0.002025 0.103648 0.248038
v -0.019407 0.329753 0.151983
v 0.037563 -0.000000 0.418516
v 0.015855 0.039979 0.314381
v -0.014072 -0.000000 0.319185
v 0.060261 -0.000000 0.236928
v 0.104213 -0.000000 0.143778
v 0.061962 -0.000000 0.318872
vt 0.000000 0.918431
vt 0.223558 0.628905
vt 0.584993 0.620511
vt 0.497953 0.970135
vt 0.729321 0.000000
vt 0.641160 0.379034
vt 0.519620 0.361548
vt 0.821502 0.660950
vt 1.000000 1.000000
vt 0.828410 0.362687
vn -0.6342 0.3289 0.6997
vn -0.7202 0.5841 0.3744
vn 0.8160 0.3210 0.4807
vn 0.6383 0.7537 0.1563
vn 0.8018 0.5750 0.1629
vn -0.6057 0.5121 0.6090
s 1
f 1/1/1 2/2/1 3/3/1 4/4/1
f 5/5/2 6/6/2 7/7/2
f 4/4/3 3/3/3 8/8/3 9/9/3
f 5/5/4 10/10/4 6/6/4
f 6/6/5 10/10/5 8/8/5 3/3/5
f 7/7/6 6/6/6 3/3/6 2/2/6
