# Blender v2.91.0 OBJ File: ''
# www.blender.org
o Cube_Cube.002
v 0.379688 0.021241 0.000000
v 0.379688 -0.000000 0.021241
v 0.400000 0.000000 0.000000
v 0.193202 0.008338 0.000000
v -0.358304 0.008338 0.000000
v -0.358304 -0.000000 0.035369
v 0.193202 -0.000000 0.035369
v 0.243277 0.021241 0.000000
v 0.240101 0.030420 0.000000
v 0.240101 0.006894 0.038413
v 0.243277 -0.000000 0.021241
v -0.400000 0.000000 0.000000
v 0.195140 0.030420 0.000000
v 0.195140 0.006894 0.038413
v 0.235864 0.005421 0.096841
v 0.235864 -0.005421 0.096841
v 0.240101 -0.006894 0.038413
v 0.195140 -0.006894 0.038413
v 0.201317 -0.005421 0.096841
v 0.201317 0.005421 0.096841
v 0.218590 -0.005421 0.112347
v 0.218590 -0.005421 -0.112347
v 0.218590 0.005421 -0.112347
v 0.235864 0.005421 -0.096841
v 0.235864 -0.005421 -0.096841
v 0.379688 0.000000 -0.021241
v 0.243277 0.000000 -0.021241
v 0.193202 0.000000 -0.035369
v -0.358304 0.000000 -0.035369
v 0.240101 0.006894 -0.038413
v 0.195140 0.006894 -0.038413
v 0.240101 -0.006894 -0.038413
v 0.201317 0.005421 -0.096841
v 0.201317 -0.005421 -0.096841
v 0.195140 -0.006894 -0.038413
v 0.242041 -0.021241 -0.000000
v 0.379688 -0.021241 -0.000000
v 0.195140 -0.008338 -0.000000
v -0.358304 -0.008338 -0.000000
v 0.240101 -0.030420 -0.000000
v 0.195140 -0.030420 -0.000000
v 0.218590 0.005421 0.112347
vt 0.291150 0.148484
vt 0.245988 0.148484
vt 0.268569 0.110504
vt 1.000000 0.055253
vt 0.174114 0.054818
vt 0.172687 0.000437
vt 1.000000 0.000000
vt 0.405695 0.282478
vt 0.391619 0.278589
vt 0.439089 0.230290
vt 0.443732 0.258130
vt 0.110502 0.054785
vt 0.550508 0.289406
vt 0.482914 0.289406
vt 0.482914 0.221686
vt 0.550509 0.221686
vt 0.293418 0.307434
vt 0.325232 0.297507
vt 0.353119 0.344485
vt 0.344279 0.352146
vt 0.459676 0.144630
vt 0.475615 0.148039
vt 0.459358 0.234626
vt 0.364452 0.347383
vt 0.382595 0.433859
vt 0.366732 0.437604
vt 0.556878 0.133817
vt 0.582847 0.110504
vt 0.608816 0.133817
vt 0.618103 0.221686
vt 0.550509 0.221686
vt 0.417760 0.470413
vt 0.401646 0.467964
vt 0.406889 0.433463
vt 0.423003 0.435911
vt 0.110502 0.148484
vt 0.155664 0.148484
vt 0.155664 0.353564
vt 0.110502 0.353564
vt 0.133083 0.110504
vt 0.999942 0.110504
vt 0.172630 0.109199
vt 0.405155 0.285432
vt 0.432121 0.321660
vt 0.417931 0.346058
vt 0.390614 0.284092
vt 0.550509 0.357126
vt 0.482915 0.357126
vt 0.291150 0.292714
vt 0.326189 0.234764
vt 0.336926 0.239408
vt 0.324476 0.292602
vt 0.438423 0.349172
vt 0.321872 0.146511
vt 0.338126 0.145307
vt 0.346861 0.233232
vt 0.618103 0.357126
vt 0.608816 0.444995
vt 0.582847 0.468308
vt 0.556878 0.444995
vt 0.550509 0.357126
vt 0.245988 0.353563
vt 0.200826 0.355422
vt 0.200826 0.148484
vt 0.223407 0.110504
vt 0.055248 0.892426
vt 0.000000 0.889393
vt 0.001742 0.062097
vt 0.056121 0.063611
vt 0.469039 0.295581
vt 0.482914 0.298117
vt 0.056188 0.000000
vt 0.550509 0.289406
vt 0.618103 0.289406
vt 0.390614 0.284920
vt 0.357802 0.289977
vt 0.390614 0.467823
vt 0.374751 0.471568
vt 0.466976 0.110504
vt 0.482914 0.113914
vt 0.178245 0.110504
vt 0.110502 0.062212
vt 0.110502 0.889510
vt 0.492201 0.133817
vt 0.518169 0.110504
vt 0.544138 0.133817
vt 0.319294 0.111708
vt 0.335548 0.110504
vt 0.291150 0.353564
vt 0.544139 0.444995
vt 0.518171 0.468308
vt 0.492202 0.444995
vn 0.3404 0.9403 0.0000
vn 0.3404 0.0000 0.9403
vn 1.0000 0.0000 0.0000
vn -0.7125 0.7017 0.0000
vn -0.0971 0.9953 0.0000
vn -0.2900 0.0000 0.9570
vn -0.9354 0.0096 0.3534
vn 0.8117 0.5840 0.0000
vn 0.5455 0.8381 0.0000
vn 0.7378 0.6181 0.2713
vn 0.8406 0.0048 0.5415
vn -1.0000 0.0000 0.0000
vn -0.5679 0.8231 0.0000
vn -0.7382 0.6145 0.2783
vn 0.6959 0.6255 0.3526
vn 0.6959 -0.6255 0.3526
vn 0.7427 -0.6152 0.2645
vn -0.7525 -0.6031 0.2644
vn -0.6881 -0.6282 0.3631
vn -0.6881 0.6282 0.3631
vn 0.0000 -0.5769 0.8168
vn 0.0000 -0.5769 -0.8168
vn 0.0000 0.5769 -0.8168
vn 0.6959 0.6255 -0.3526
vn 0.6959 -0.6255 -0.3526
vn 0.3404 0.0000 -0.9403
vn 0.8406 0.0048 -0.5415
vn -0.9354 0.0096 -0.3534
vn -0.2900 0.0000 -0.9570
vn 0.7378 0.6181 -0.2713
vn -0.7382 0.6145 -0.2783
vn 0.7427 -0.6152 -0.2645
vn -0.6881 0.6282 -0.3631
vn -0.6881 -0.6282 -0.3631
vn -0.7525 -0.6031 -0.2644
vn 0.8340 -0.5517 0.0000
vn 0.3404 -0.9403 0.0000
vn -0.7477 -0.6640 0.0000
vn -0.0971 -0.9953 0.0000
vn 0.5506 -0.8347 0.0000
vn -0.5864 -0.8100 0.0000
vn 0.0000 0.5769 0.8168
s 1
f 1/1/1 2/2/2 3/3/3
f 4/4/4 5/5/5 6/6/6 7/7/7
f 8/8/8 9/9/9 10/10/10 11/11/11
f 6/6/6 5/5/5 12/12/12
f 9/13/9 13/14/13 14/15/14 10/16/10
f 13/17/13 4/18/4 7/19/7 14/20/14
f 15/21/15 16/22/16 17/23/17 10/10/10
f 18/24/18 19/25/19 20/26/20 14/20/14
f 16/27/16 21/28/21 19/29/19 18/30/18 17/31/17
f 10/10/10 17/23/17 11/11/11
f 14/20/14 7/19/7 18/24/18
f 22/32/22 23/33/23 24/34/24 25/35/25
f 1/36/1 26/37/26 27/38/27 8/39/8
f 1/36/1 3/40/3 26/37/26
f 4/4/4 28/41/28 29/42/29 5/5/5
f 8/43/8 27/44/27 30/45/30 9/46/9
f 29/42/29 12/12/12 5/5/5
f 9/13/9 30/47/30 31/48/31 13/14/13
f 13/49/13 31/50/31 28/51/28 4/52/4
f 25/35/25 24/34/24 30/45/30 32/53/32
f 31/50/31 33/54/33 34/55/34 35/56/35
f 35/57/35 34/58/34 22/59/22 25/60/25 32/61/32
f 27/44/27 32/53/32 30/45/30
f 31/50/31 35/56/35 28/51/28
f 2/2/2 11/62/11 36/63/36 37/64/37
f 37/64/37 3/65/3 2/2/2
f 38/66/38 7/67/7 6/68/6 39/69/39
f 36/70/36 11/11/11 17/23/17 40/71/40
f 6/68/6 12/72/12 39/69/39
f 40/73/40 17/31/17 18/30/18 41/74/41
f 41/75/41 18/24/18 7/19/7 38/76/38
f 21/77/21 42/78/42 20/26/20 19/25/19
f 16/22/16 15/21/15 42/79/42 21/80/21
f 37/64/37 36/63/36 27/38/27 26/37/26
f 37/64/37 26/37/26 3/81/3
f 38/66/38 39/69/39 29/82/29 28/83/28
f 36/70/36 40/71/40 32/53/32 27/44/27
f 29/82/29 39/69/39 12/72/12
f 40/73/40 41/74/41 35/57/35 32/61/32
f 41/75/41 38/76/38 28/51/28 35/56/35
f 14/15/14 20/84/20 42/85/42 15/86/15 10/16/10
f 33/54/33 23/87/23 22/88/22 34/55/34
f 1/1/1 8/89/8 11/62/11 2/2/2
f 24/90/24 23/91/23 33/92/33 31/48/31 30/47/30
