# Blender v2.91.0 OBJ File: ''
# www.blender.org
o Plane.002
v 0.250000 -0.000000 0.433013
v -0.250000 -0.000000 -0.433013
v 0.250000 1.000000 0.433013
v -0.250000 1.000000 -0.433013
v -0.500000 -0.000000 0.000000
v 0.500000 -0.000000 0.000000
v -0.500000 1.000000 0.000000
v 0.500000 1.000000 0.000000
v -0.250000 -0.000000 0.433013
v 0.250000 -0.000000 -0.433013
v -0.250000 1.000000 0.433013
v 0.250000 1.000000 -0.433013
vt 0.000000 0.000000
vt 0.333333 0.000000
vt 0.333333 1.000000
vt 0.000000 1.000000
vt 0.333333 0.000000
vt 0.666667 0.000000
vt 0.666667 1.000000
vt 0.333333 1.000000
vt 0.666667 0.000000
vt 1.000000 0.000000
vt 1.000000 1.000000
vt 0.666667 1.000000
vn 0.8660 0.0000 -0.5000
vn 0.0000 0.0000 1.0000
vn 0.8660 0.0000 0.5000
s off
f 1/1/1 2/2/1 4/3/1 3/4/1
f 5/5/2 6/6/2 8/7/2 7/8/2
f 9/9/3 10/10/3 12/11/3 11/12/3
