# Blender v2.91.0 OBJ File: ''
# www.blender.org
o Icosphere
v 0.000000 -0.200000 -0.000000
v 0.144720 -0.089443 0.105144
v -0.055277 -0.089443 0.170128
v -0.178885 -0.089443 -0.000000
v -0.055277 -0.089443 -0.170128
v 0.144720 -0.089443 -0.105144
v 0.055277 0.089443 0.170128
v -0.144720 0.089443 0.105144
v -0.144720 0.089443 -0.105144
v 0.055277 0.089443 -0.170128
v 0.178885 0.089443 -0.000000
v 0.000000 0.200000 -0.000000
vt 0.820125 0.252315
vt 0.820125 0.728186
vt 0.626947 0.490252
vt 0.819539 0.258422
vt 0.819539 0.734292
vt 0.626361 0.496352
vt 0.820694 0.249269
vt 0.820694 0.725139
vt 0.627513 0.487205
vt 0.631802 0.493311
vt 0.824982 0.255370
vt 0.824982 0.731243
vt 0.630373 0.490254
vt 0.823552 0.252320
vt 0.823552 0.728188
vt 0.817269 0.249269
vt 0.817269 0.725134
vt 0.624087 0.487202
vt 0.809237 0.243171
vt 0.809237 0.719040
vt 0.616055 0.481102
vt 0.811825 0.255369
vt 0.811825 0.731242
vt 0.618643 0.493303
vt 0.627788 0.499402
vt 0.820969 0.261469
vt 0.820969 0.737343
vt 0.805810 0.243171
vt 0.805810 0.719040
vt 0.612628 0.481110
vt 0.810098 0.249269
vt 0.810098 0.725143
vt 0.616917 0.487209
vt 0.807533 0.725146
vt 0.614354 0.487204
vt 0.807533 0.249269
vt 0.821553 0.255370
vt 0.821553 0.731244
vt 0.628375 0.493316
vt 0.816677 0.255369
vt 0.816677 0.731246
vt 0.623499 0.493311
vt 0.813524 0.249269
vt 0.813524 0.725145
vt 0.620344 0.487208
vt 0.814114 0.731243
vt 0.620933 0.493309
vt 0.814114 0.255373
vt 0.812094 0.246214
vt 0.812094 0.722083
vt 0.618914 0.484149
vt 0.619503 0.490252
vt 0.812681 0.252322
vt 0.812681 0.728193
vt 0.615486 0.484148
vt 0.808665 0.246214
vt 0.808665 0.722085
vt 0.809823 0.725143
vt 0.616644 0.487203
vt 0.809823 0.249269
vn 0.1876 -0.7947 0.5774
vn 0.6071 -0.7947 0.0000
vn -0.4911 -0.7947 0.3568
vn -0.4911 -0.7947 -0.3568
vn 0.1876 -0.7947 -0.5774
vn 0.9822 -0.1876 0.0000
vn 0.3035 -0.1876 0.9342
vn -0.7946 -0.1876 0.5774
vn -0.7946 -0.1876 -0.5774
vn 0.3035 -0.1876 -0.9342
vn 0.7946 0.1876 0.5774
vn -0.3035 0.1876 0.9342
vn -0.9822 0.1876 0.0000
vn -0.3035 0.1876 -0.9342
vn 0.7946 0.1876 -0.5774
vn 0.4911 0.7947 0.3568
vn -0.1876 0.7947 0.5774
vn -0.6071 0.7947 0.0000
vn -0.1876 0.7947 -0.5774
vn 0.4911 0.7947 -0.3568
s off
f 1/1/1 2/2/1 3/3/1
f 2/4/2 1/5/2 6/6/2
f 1/7/3 3/8/3 4/9/3
f 1/10/4 4/11/4 5/12/4
f 1/13/5 5/14/5 6/15/5
f 2/16/6 6/17/6 11/18/6
f 3/19/7 2/20/7 7/21/7
f 4/22/8 3/23/8 8/24/8
f 5/25/9 4/26/9 9/27/9
f 6/28/10 5/29/10 10/30/10
f 2/31/11 11/32/11 7/33/11
f 3/34/12 7/35/12 8/36/12
f 4/37/13 8/38/13 9/39/13
f 5/40/14 9/41/14 10/42/14
f 6/43/15 10/44/15 11/45/15
f 7/46/16 11/47/16 12/48/16
f 8/49/17 7/50/17 12/51/17
f 9/52/18 8/53/18 12/54/18
f 10/55/19 9/56/19 12/57/19
f 11/58/20 10/59/20 12/60/20
o Plane.001_Plane.006
v 0.142180 -0.102742 0.074246
v 0.215848 -0.116812 0.074246
v 0.170037 0.043114 -0.074246
v 0.243705 0.029044 -0.074246
v 0.142180 -0.102742 -0.074246
v 0.215848 -0.116812 -0.074246
v 0.170037 0.043114 0.074246
v 0.243705 0.029044 0.074246
v -0.158668 -0.102743 0.023505
v -0.218267 -0.116812 0.066807
v -0.093920 0.043114 0.160010
v -0.153519 0.029045 0.203312
v -0.071385 -0.102743 0.143637
v -0.130984 -0.116812 0.186939
v -0.181203 0.043114 0.039878
v -0.240802 0.029045 0.083180
v 0.169427 0.081223 -0.031323
v 0.206261 0.140822 -0.058085
v -0.013319 0.171368 -0.082095
v 0.023515 0.230967 -0.108858
v 0.082144 0.081223 -0.151455
v 0.118978 0.140822 -0.178217
v 0.073964 0.171368 0.038036
v 0.110798 0.230967 0.011274
v 0.169427 0.081223 -0.031323
v 0.206261 0.140822 -0.058085
v -0.013319 0.171368 -0.082095
v 0.023515 0.230967 -0.108858
v 0.082144 0.081223 -0.151455
v 0.118978 0.140822 -0.178217
v 0.073964 0.171368 0.038036
v 0.110798 0.230967 0.011274
v 0.018068 -0.043114 -0.184656
v -0.004697 -0.029045 -0.254719
v -0.114548 0.102742 -0.112277
v -0.137313 0.116812 -0.182340
v -0.123156 -0.043114 -0.138769
v -0.145921 -0.029045 -0.208832
v 0.026676 0.102742 -0.158164
v 0.003911 0.116812 -0.228227
v -0.059030 -0.171368 0.058589
v -0.044960 -0.230967 0.101890
v 0.118659 -0.081223 0.124926
v 0.132728 -0.140822 0.168227
v 0.082194 -0.171368 0.012702
v 0.096264 -0.230967 0.056003
v -0.022566 -0.081223 0.170813
v -0.008496 -0.140822 0.214115
v -0.158668 -0.102743 0.023505
v -0.218267 -0.116812 0.066807
v -0.093920 0.043114 0.160010
v -0.153519 0.029045 0.203312
v -0.071385 -0.102743 0.143637
v -0.130984 -0.116812 0.186939
v -0.181203 0.043114 0.039878
v -0.240802 0.029045 0.083180
v -0.170037 -0.043114 -0.074246
v -0.243705 -0.029044 -0.074246
v -0.142180 0.102742 0.074246
v -0.215848 0.116812 0.074246
v -0.170037 -0.043114 0.074246
v -0.243705 -0.029044 0.074246
v -0.142180 0.102742 -0.074246
v -0.215848 0.116812 -0.074246
v 0.169427 0.081223 -0.031323
v 0.206261 0.140822 -0.058085
v -0.013319 0.171368 -0.082095
v 0.023515 0.230967 -0.108858
v 0.082144 0.081223 -0.151455
v 0.118978 0.140822 -0.178217
v 0.073964 0.171368 0.038036
v 0.110798 0.230967 0.011274
v 0.142180 -0.102742 0.074246
v 0.215848 -0.116812 0.074246
v 0.170037 0.043114 -0.074246
v 0.243705 0.029044 -0.074246
v 0.142180 -0.102742 -0.074246
v 0.215848 -0.116812 -0.074246
v 0.170037 0.043114 0.074246
v 0.243705 0.029044 0.074246
v -0.155480 0.081223 -0.074246
v -0.201010 0.140822 -0.074246
v -0.037480 0.171368 0.074246
v -0.083010 0.230966 0.074246
v -0.155480 0.081223 0.074246
v -0.201010 0.140822 0.074246
v -0.037480 0.171368 -0.074246
v -0.083010 0.230966 -0.074246
v 0.093920 -0.043114 0.160010
v 0.153519 -0.029045 0.203312
v 0.158668 0.102742 0.023505
v 0.218266 0.116811 0.066807
v 0.181203 -0.043114 0.039878
v 0.240802 -0.029045 0.083180
v 0.071385 0.102742 0.143637
v 0.130984 0.116812 0.186939
vt 0.250000 0.000000
vt 0.500000 0.000000
vt 0.500000 1.000000
vt 0.250000 1.000000
vt 0.000000 0.000000
vt 0.250000 0.000000
vt 0.250000 1.000000
vt 0.000000 1.000000
vt 0.250000 0.000000
vt 0.500000 0.000000
vt 0.500000 1.000000
vt 0.250000 1.000000
vt 0.000000 0.000000
vt 0.250000 0.000000
vt 0.250000 1.000000
vt 0.000000 1.000000
vt 0.250000 0.000000
vt 0.500000 0.000000
vt 0.500000 1.000000
vt 0.250000 1.000000
vt 0.000000 0.000000
vt 0.250000 0.000000
vt 0.250000 1.000000
vt 0.000000 1.000000
vt 0.250000 0.000000
vt 0.500000 0.000000
vt 0.500000 1.000000
vt 0.250000 1.000000
vt 0.000000 0.000000
vt 0.250000 0.000000
vt 0.250000 1.000000
vt 0.000000 1.000000
vt 0.250000 0.000000
vt 0.500000 0.000000
vt 0.500000 1.000000
vt 0.250000 1.000000
vt 0.000000 0.000000
vt 0.250000 0.000000
vt 0.250000 1.000000
vt 0.000000 1.000000
vt 0.250000 0.000000
vt 0.500000 0.000000
vt 0.500000 1.000000
vt 0.250000 1.000000
vt 0.000000 0.000000
vt 0.250000 0.000000
vt 0.250000 1.000000
vt 0.000000 1.000000
vt 0.250000 0.000000
vt 0.500000 0.000000
vt 0.500000 1.000000
vt 0.250000 1.000000
vt 0.000000 0.000000
vt 0.250000 0.000000
vt 0.250000 1.000000
vt 0.000000 1.000000
vt 0.250000 0.000000
vt 0.500000 0.000000
vt 0.500000 1.000000
vt 0.250000 1.000000
vt 0.000000 0.000000
vt 0.250000 0.000000
vt 0.250000 1.000000
vt 0.000000 1.000000
vt 0.250000 0.000000
vt 0.500000 0.000000
vt 0.500000 1.000000
vt 0.250000 1.000000
vt 0.000000 0.000000
vt 0.250000 0.000000
vt 0.250000 1.000000
vt 0.000000 1.000000
vt 0.250000 0.000000
vt 0.500000 0.000000
vt 0.500000 1.000000
vt 0.250000 1.000000
vt 0.000000 0.000000
vt 0.250000 0.000000
vt 0.250000 1.000000
vt 0.000000 1.000000
vt 0.250000 0.000000
vt 0.500000 0.000000
vt 0.500000 1.000000
vt 0.250000 1.000000
vt 0.000000 0.000000
vt 0.250000 0.000000
vt 0.250000 1.000000
vt 0.000000 1.000000
vt 0.250000 0.000000
vt 0.500000 0.000000
vt 0.500000 1.000000
vt 0.250000 1.000000
vt 0.000000 0.000000
vt 0.250000 0.000000
vt 0.250000 1.000000
vt 0.000000 1.000000
vn 0.0731 0.3826 0.9210
vn 0.2921 0.3876 0.8743
vn 0.3813 0.8206 0.4256
vn 0.1739 0.9102 0.3758
vn -0.1738 -0.9102 0.3758
vn 0.0520 -0.9034 0.4256
vn 0.1287 -0.4680 0.8743
vn -0.0731 -0.3826 0.9210
vn -0.7595 0.5169 -0.3949
vn -0.7697 0.5237 -0.3650
vn -0.7216 0.6505 -0.2369
vn -0.7050 0.6665 -0.2423
vn -0.5719 -0.7219 -0.3897
vn -0.5754 -0.7211 -0.3858
vn -0.6371 -0.5776 -0.5103
vn -0.6342 -0.5508 -0.5426
vn 0.0058 0.7153 0.6988
vn 0.0619 0.7174 0.6939
vn -0.1923 0.7017 0.6860
vn -0.2618 0.6604 0.7038
vn 0.9434 -0.1762 -0.2810
vn 0.9791 -0.1010 -0.1763
vn 0.9429 0.0946 0.3193
vn 0.8852 0.0969 0.4551
vn 0.4746 0.7159 -0.5120
vn 0.4941 0.7137 -0.4965
vn 0.3715 0.8710 -0.3216
vn 0.3425 0.9011 -0.2659
vn 0.2308 -0.7635 -0.6031
vn 0.2716 -0.7193 -0.6394
vn 0.4360 -0.5107 -0.7410
vn 0.4263 -0.4893 -0.7608
vn -0.6786 0.1909 0.7092
vn -0.6379 0.1500 0.7553
vn -0.4437 0.1938 0.8750
vn -0.4670 0.2420 0.8505
vn -0.7862 -0.5760 -0.2238
vn -0.7658 -0.6186 -0.1758
vn -0.8794 -0.4753 -0.0274
vn -0.9085 -0.4152 -0.0470
vn -0.2473 0.6244 -0.7409
vn -0.2514 0.6405 -0.7256
vn -0.2280 0.7819 -0.5803
vn -0.2188 0.7958 -0.5646
vn -0.4967 -0.6592 -0.5646
vn -0.5001 -0.6428 -0.5803
vn -0.4698 -0.5028 -0.7256
vn -0.4600 -0.4893 -0.7409
vn 0.1553 0.5712 -0.8060
vn 0.1714 0.6037 -0.7786
vn 0.2690 0.7466 -0.6084
vn 0.2657 0.7583 -0.5953
vn -0.8018 -0.2625 -0.5368
vn -0.8004 -0.2303 -0.5534
vn -0.7128 -0.1284 -0.6895
vn -0.7031 -0.1386 -0.6975
vn -0.5181 0.5361 0.6665
vn -0.4303 0.5679 0.7017
vn -0.3167 0.7981 0.5126
vn -0.4016 0.8062 0.4345
vn -0.1057 -0.6352 0.7651
vn -0.0352 -0.5966 0.8018
vn -0.3090 -0.4072 0.8595
vn -0.4081 -0.4017 0.8198
s off
f 13/61/21 14/62/22 16/63/23 15/64/24
f 17/65/25 18/66/26 20/67/27 19/68/28
f 21/69/29 22/70/30 24/71/31 23/72/32
f 25/73/33 26/74/34 28/75/35 27/76/36
f 29/77/37 30/78/38 32/79/39 31/80/40
f 33/81/41 34/82/42 36/83/43 35/84/44
f 37/85/37 38/86/38 40/87/39 39/88/40
f 41/89/41 42/90/42 44/91/43 43/92/44
f 45/93/45 46/94/46 48/95/47 47/96/48
f 49/97/49 50/98/50 52/99/51 51/100/52
f 53/101/53 54/102/54 56/103/55 55/104/56
f 57/105/57 58/106/58 60/107/59 59/108/60
f 61/109/29 62/110/30 64/111/31 63/112/32
f 65/113/33 66/114/34 68/115/35 67/116/36
f 69/117/61 70/118/62 72/119/63 71/120/64
f 73/121/65 74/122/66 76/123/67 75/124/68
f 77/125/37 78/126/38 80/127/39 79/128/40
f 81/129/41 82/130/42 84/131/43 83/132/44
f 85/133/21 86/134/22 88/135/23 87/136/24
f 89/137/25 90/138/26 92/139/27 91/140/28
f 93/141/69 94/142/70 96/143/71 95/144/72
f 97/145/73 98/146/74 100/147/75 99/148/76
f 101/149/77 102/150/78 104/151/79 103/152/80
f 105/153/81 106/154/82 108/155/83 107/156/84
o Plane.002_Plane.008
v 0.142180 -0.102742 0.074246
v 0.215848 -0.116812 0.074246
v 0.170037 0.043114 -0.074246
v 0.243705 0.029044 -0.074246
v 0.142180 -0.102742 -0.074246
v 0.215848 -0.116812 -0.074246
v 0.170037 0.043114 0.074246
v 0.243705 0.029044 0.074246
v -0.158668 -0.102743 0.023505
v -0.218267 -0.116812 0.066807
v -0.093920 0.043114 0.160010
v -0.153519 0.029045 0.203312
v -0.071385 -0.102743 0.143637
v -0.130984 -0.116812 0.186939
v -0.181203 0.043114 0.039878
v -0.240802 0.029045 0.083180
v 0.169427 0.081223 -0.031323
v 0.206261 0.140822 -0.058085
v -0.013319 0.171368 -0.082095
v 0.023515 0.230967 -0.108858
v 0.082144 0.081223 -0.151455
v 0.118978 0.140822 -0.178217
v 0.073964 0.171368 0.038036
v 0.110798 0.230967 0.011274
v 0.169427 0.081223 -0.031323
v 0.206261 0.140822 -0.058085
v -0.013319 0.171368 -0.082095
v 0.023515 0.230967 -0.108858
v 0.082144 0.081223 -0.151455
v 0.118978 0.140822 -0.178217
v 0.073964 0.171368 0.038036
v 0.110798 0.230967 0.011274
v 0.018068 -0.043114 -0.184656
v -0.004697 -0.029045 -0.254719
v -0.114548 0.102742 -0.112277
v -0.137313 0.116812 -0.182340
v -0.123156 -0.043114 -0.138769
v -0.145921 -0.029045 -0.208832
v 0.026676 0.102742 -0.158164
v 0.003911 0.116812 -0.228227
v -0.059030 -0.171368 0.058589
v -0.044960 -0.230967 0.101890
v 0.118659 -0.081223 0.124926
v 0.132728 -0.140822 0.168227
v 0.082194 -0.171368 0.012702
v 0.096264 -0.230967 0.056003
v -0.022566 -0.081223 0.170813
v -0.008496 -0.140822 0.214115
v -0.158668 -0.102743 0.023505
v -0.218267 -0.116812 0.066807
v -0.093920 0.043114 0.160010
v -0.153519 0.029045 0.203312
v -0.071385 -0.102743 0.143637
v -0.130984 -0.116812 0.186939
v -0.181203 0.043114 0.039878
v -0.240802 0.029045 0.083180
v -0.170037 -0.043114 -0.074246
v -0.243705 -0.029044 -0.074246
v -0.142180 0.102742 0.074246
v -0.215848 0.116812 0.074246
v -0.170037 -0.043114 0.074246
v -0.243705 -0.029044 0.074246
v -0.142180 0.102742 -0.074246
v -0.215848 0.116812 -0.074246
v 0.169427 0.081223 -0.031323
v 0.206261 0.140822 -0.058085
v -0.013319 0.171368 -0.082095
v 0.023515 0.230967 -0.108858
v 0.082144 0.081223 -0.151455
v 0.118978 0.140822 -0.178217
v 0.073964 0.171368 0.038036
v 0.110798 0.230967 0.011274
v 0.142180 -0.102742 0.074246
v 0.215848 -0.116812 0.074246
v 0.170037 0.043114 -0.074246
v 0.243705 0.029044 -0.074246
v 0.142180 -0.102742 -0.074246
v 0.215848 -0.116812 -0.074246
v 0.170037 0.043114 0.074246
v 0.243705 0.029044 0.074246
v -0.155480 0.081223 -0.074246
v -0.201010 0.140822 -0.074246
v -0.037480 0.171368 0.074246
v -0.083010 0.230966 0.074246
v -0.155480 0.081223 0.074246
v -0.201010 0.140822 0.074246
v -0.037480 0.171368 -0.074246
v -0.083010 0.230966 -0.074246
v 0.093920 -0.043114 0.160010
v 0.153519 -0.029045 0.203312
v 0.158668 0.102742 0.023505
v 0.218266 0.116811 0.066807
v 0.181203 -0.043114 0.039878
v 0.240802 -0.029045 0.083180
v 0.071385 0.102742 0.143637
v 0.130984 0.116812 0.186939
vt 0.250000 0.000000
vt 0.250000 1.000000
vt 0.500000 1.000000
vt 0.500000 0.000000
vt 0.000000 0.000000
vt 0.000000 1.000000
vt 0.250000 1.000000
vt 0.250000 0.000000
vt 0.250000 0.000000
vt 0.250000 1.000000
vt 0.500000 1.000000
vt 0.500000 0.000000
vt 0.000000 0.000000
vt 0.000000 1.000000
vt 0.250000 1.000000
vt 0.250000 0.000000
vt 0.250000 0.000000
vt 0.250000 1.000000
vt 0.500000 1.000000
vt 0.500000 0.000000
vt 0.000000 0.000000
vt 0.000000 1.000000
vt 0.250000 1.000000
vt 0.250000 0.000000
vt 0.250000 0.000000
vt 0.250000 1.000000
vt 0.500000 1.000000
vt 0.500000 0.000000
vt 0.000000 0.000000
vt 0.000000 1.000000
vt 0.250000 1.000000
vt 0.250000 0.000000
vt 0.250000 0.000000
vt 0.250000 1.000000
vt 0.500000 1.000000
vt 0.500000 0.000000
vt 0.000000 0.000000
vt 0.000000 1.000000
vt 0.250000 1.000000
vt 0.250000 0.000000
vt 0.250000 0.000000
vt 0.250000 1.000000
vt 0.500000 1.000000
vt 0.500000 0.000000
vt 0.000000 0.000000
vt 0.000000 1.000000
vt 0.250000 1.000000
vt 0.250000 0.000000
vt 0.250000 0.000000
vt 0.250000 1.000000
vt 0.500000 1.000000
vt 0.500000 0.000000
vt 0.000000 0.000000
vt 0.000000 1.000000
vt 0.250000 1.000000
vt 0.250000 0.000000
vt 0.250000 0.000000
vt 0.250000 1.000000
vt 0.500000 1.000000
vt 0.500000 0.000000
vt 0.000000 0.000000
vt 0.000000 1.000000
vt 0.250000 1.000000
vt 0.250000 0.000000
vt 0.250000 0.000000
vt 0.250000 1.000000
vt 0.500000 1.000000
vt 0.500000 0.000000
vt 0.000000 0.000000
vt 0.000000 1.000000
vt 0.250000 1.000000
vt 0.250000 0.000000
vt 0.250000 0.000000
vt 0.250000 1.000000
vt 0.500000 1.000000
vt 0.500000 0.000000
vt 0.000000 0.000000
vt 0.000000 1.000000
vt 0.250000 1.000000
vt 0.250000 0.000000
vt 0.250000 0.000000
vt 0.250000 1.000000
vt 0.500000 1.000000
vt 0.500000 0.000000
vt 0.000000 0.000000
vt 0.000000 1.000000
vt 0.250000 1.000000
vt 0.250000 0.000000
vt 0.250000 0.000000
vt 0.250000 1.000000
vt 0.500000 1.000000
vt 0.500000 0.000000
vt 0.000000 0.000000
vt 0.000000 1.000000
vt 0.250000 1.000000
vt 0.250000 0.000000
vn -0.1738 -0.9102 -0.3758
vn -0.0731 -0.3826 -0.9210
vn 0.1287 -0.4680 -0.8743
vn 0.0520 -0.9034 -0.4256
vn 0.0731 0.3826 -0.9210
vn 0.1739 0.9102 -0.3758
vn 0.3813 0.8206 -0.4256
vn 0.2921 0.3876 -0.8743
vn 0.0791 -0.8308 0.5509
vn 0.1595 -0.6101 0.7761
vn 0.1608 -0.6327 0.7575
vn 0.0930 -0.8064 0.5840
vn -0.0298 0.5540 0.8320
vn -0.0971 0.7413 0.6641
vn -0.0930 0.7106 0.6975
vn -0.0257 0.5569 0.8302
vn 0.0860 -0.0161 -0.9962
vn -0.2044 -0.1159 -0.9720
vn -0.1283 -0.0761 -0.9888
vn 0.1443 -0.0419 -0.9887
vn -0.7788 0.4824 -0.4009
vn -0.7918 0.5944 -0.1401
vn -0.7519 0.6337 -0.1819
vn -0.7400 0.5360 -0.4062
vn -0.7793 -0.6001 -0.1805
vn -0.8868 -0.4602 -0.0426
vn -0.8770 -0.4717 -0.0916
vn -0.7783 -0.5938 -0.2039
vn -0.8097 0.5696 0.1415
vn -0.6762 0.7324 0.0795
vn -0.6817 0.7299 0.0501
vn -0.7998 0.5918 0.1004
vn 0.1269 -0.7207 -0.6816
vn 0.4719 -0.8130 -0.3410
vn 0.5020 -0.7761 -0.3817
vn 0.2032 -0.7636 -0.6129
vn 0.8393 -0.1236 0.5295
vn 0.5709 0.3709 0.7325
vn 0.6334 0.2741 0.7237
vn 0.8395 -0.0499 0.5410
vn -0.4967 -0.6592 0.5646
vn -0.4600 -0.4893 0.7409
vn -0.4698 -0.5028 0.7256
vn -0.5001 -0.6428 0.5803
vn -0.2473 0.6244 0.7409
vn -0.2188 0.7958 0.5646
vn -0.2280 0.7819 0.5803
vn -0.2514 0.6405 0.7256
vn -0.8018 -0.2625 0.5368
vn -0.7031 -0.1386 0.6975
vn -0.7128 -0.1284 0.6895
vn -0.8004 -0.2303 0.5534
vn 0.1553 0.5712 0.8060
vn 0.2657 0.7583 0.5953
vn 0.2690 0.7466 0.6084
vn 0.1714 0.6037 0.7786
vn 0.4242 -0.9056 -0.0028
vn 0.8002 -0.1682 -0.5756
vn 0.8842 -0.3118 -0.3477
vn 0.5981 -0.8014 0.0076
vn 0.6840 0.6794 -0.2657
vn 0.1372 0.9311 -0.3380
vn 0.2565 0.9206 -0.2943
vn 0.6269 0.7063 -0.3289
s off
f 109/157/85 111/158/86 112/159/87 110/160/88
f 113/161/89 115/162/90 116/163/91 114/164/92
f 117/165/93 119/166/94 120/167/95 118/168/96
f 121/169/97 123/170/98 124/171/99 122/172/100
f 125/173/101 127/174/102 128/175/103 126/176/104
f 129/177/105 131/178/106 132/179/107 130/180/108
f 133/181/101 135/182/102 136/183/103 134/184/104
f 137/185/105 139/186/106 140/187/107 138/188/108
f 141/189/109 143/190/110 144/191/111 142/192/112
f 145/193/113 147/194/114 148/195/115 146/196/116
f 149/197/117 151/198/118 152/199/119 150/200/120
f 153/201/121 155/202/122 156/203/123 154/204/124
f 157/205/93 159/206/94 160/207/95 158/208/96
f 161/209/97 163/210/98 164/211/99 162/212/100
f 165/213/125 167/214/126 168/215/127 166/216/128
f 169/217/129 171/218/130 172/219/131 170/220/132
f 173/221/101 175/222/102 176/223/103 174/224/104
f 177/225/105 179/226/106 180/227/107 178/228/108
f 181/229/85 183/230/86 184/231/87 182/232/88
f 185/233/89 187/234/90 188/235/91 186/236/92
f 189/237/133 191/238/134 192/239/135 190/240/136
f 193/241/137 195/242/138 196/243/139 194/244/140
f 197/245/141 199/246/142 200/247/143 198/248/144
f 201/249/145 203/250/146 204/251/147 202/252/148
