# Blender v2.91.0 OBJ File: ''
# www.blender.org
o Cube_Cube.001
v -0.200000 1.650066 -0.200000
v 0.200000 1.650066 -0.200000
v 0.000000 2.000000 0.000000
v 0.200000 1.650066 0.200000
v -0.200000 1.650066 0.200000
v 0.200000 0.200000 1.650066
v 0.200000 -0.200000 1.650066
v -0.000000 0.000000 2.000000
v -0.100000 1.501254 0.100000
v -0.100000 1.501254 -0.100000
v 0.100000 1.501254 0.100000
v 0.100000 1.501254 -0.100000
v -0.100000 0.200000 -0.100000
v 0.100000 0.200000 -0.100000
v 0.100000 0.200000 0.100000
v -0.100000 0.200000 0.100000
v -0.200000 0.200000 1.650066
v -0.200000 -0.200000 1.650066
v -0.100000 -0.100000 1.501254
v -0.100000 0.100000 1.501254
v 0.100000 -0.100000 1.501254
v 0.100000 0.100000 1.501254
v -0.100000 0.100000 0.200000
v 0.100000 0.100000 0.200000
v 0.100000 -0.100000 0.200000
v -0.100000 -0.100000 0.200000
v 1.650066 0.200000 -0.200000
v 1.650066 -0.200000 -0.200000
v 2.000000 -0.000000 0.000000
v 1.650066 0.200000 0.200000
v 1.650066 -0.200000 0.200000
v 1.501254 -0.100000 0.100000
v 1.501254 0.100000 0.100000
v 1.501254 -0.100000 -0.100000
v 1.501254 0.100000 -0.100000
v 0.200000 0.100000 0.100000
v 0.200000 0.100000 -0.100000
v 0.200000 -0.100000 -0.100000
v 0.200000 -0.100000 0.100000
v -0.200000 -0.200000 -0.200000
v 0.200000 -0.200000 -0.200000
v 0.200000 0.200000 -0.200000
v -0.200000 0.200000 -0.200000
v 0.200000 0.200000 0.200000
v -0.200000 -0.200000 0.200000
v -0.200000 0.200000 0.200000
v 0.200000 -0.200000 0.200000
vt 0.000000 0.390625
vt 0.054688 0.500000
vt 0.109375 0.390625
vt 0.164063 0.500000
vt 0.218750 0.390625
vt 0.328125 0.390625
vt 0.382812 0.500000
vt 0.437500 0.390625
vt 0.218750 0.390625
vt 0.273438 0.500000
vt 0.328125 0.390625
vt 0.437500 0.390625
vt 0.492188 0.500000
vt 0.546875 0.390625
vt 0.250000 0.343750
vt 0.296875 0.343750
vt 0.359375 0.343750
vt 0.406250 0.343750
vt 0.140625 0.343750
vt 0.187500 0.343750
vt 0.031250 0.343750
vt 0.078125 0.343750
vt 0.031250 0.000000
vt 0.078125 0.000000
vt 0.140625 -0.000000
vt 0.187500 -0.000000
vt 0.359375 -0.000000
vt 0.406250 -0.000000
vt 0.250000 0.000000
vt 0.296875 0.000000
vt 0.765625 0.390625
vt 0.820312 0.500000
vt 0.875000 0.390625
vt 0.656250 0.390625
vt 0.710938 0.500000
vt 0.765625 0.390625
vt 0.546875 0.390625
vt 0.601562 0.500000
vt 0.656250 0.390625
vt 0.578125 0.343750
vt 0.625000 0.343750
vt 0.687500 0.343750
vt 0.734375 0.343750
vt 0.468750 0.343750
vt 0.515625 0.343750
vt 0.796875 0.343750
vt 0.843750 0.343750
vt 0.796875 0.000000
vt 0.843750 0.000000
vt 0.468750 0.000000
vt 0.515625 0.000000
vt 0.687500 0.000000
vt 0.734375 0.000000
vt 0.578125 0.000000
vt 0.625000 0.000000
vt 0.109375 0.890625
vt 0.164062 1.000000
vt 0.218750 0.890625
vt 0.000000 0.890625
vt 0.054688 1.000000
vt 0.328125 0.890625
vt 0.382812 1.000000
vt 0.437500 0.890625
vt 0.218750 0.890625
vt 0.273438 1.000000
vt 0.328125 0.890625
vt 0.250000 0.843750
vt 0.296875 0.843750
vt 0.359375 0.843750
vt 0.406250 0.843750
vt 0.140625 0.843750
vt 0.187500 0.843750
vt 0.031250 0.843750
vt 0.078125 0.843750
vt 0.031250 0.500000
vt 0.078125 0.500000
vt 0.140625 0.500000
vt 0.187500 0.500000
vt 0.359375 0.500000
vt 0.406250 0.500000
vt 0.250000 0.500000
vt 0.296875 0.500000
vt 0.890625 0.781250
vt 0.890625 0.890625
vt 1.000000 0.890625
vt 1.000000 0.781250
vt 0.695313 0.804688
vt 0.757812 0.804688
vt 0.781250 0.781250
vt 0.671875 0.781250
vt 0.695313 0.909375
vt 0.757812 0.909375
vt 0.781250 0.890625
vt 0.671875 0.890625
vt 1.000000 0.999599
vt 1.000000 0.890625
vt 0.890625 0.999599
vt 0.781250 0.890625
vt 0.781250 0.999599
vt 0.890625 0.999599
vt 0.890625 0.890625
vt 0.671875 0.999599
vt 0.695313 0.976562
vt 0.757812 0.976562
vt 0.781250 0.999599
vt 0.757812 0.867188
vt 0.695313 0.867188
vt 0.671875 0.890625
vt 0.890625 0.781250
vt 0.781250 0.781250
vt 0.804688 0.804688
vt 0.867188 0.804688
vt 0.781250 0.890625
vt 0.804688 0.867188
vt 0.890625 0.890625
vt 0.867188 0.867188
vn -0.0000 -0.0225 -0.9997
vn -0.0000 0.4962 -0.8682
vn 0.9997 -0.0225 0.0000
vn 0.8682 0.4962 0.0000
vn -0.0000 -0.0225 0.9997
vn -0.0000 0.4962 0.8682
vn -0.9997 -0.0225 -0.0000
vn -0.8682 0.4962 -0.0000
vn 0.9997 0.0000 -0.0225
vn 0.8682 0.0000 0.4962
vn -0.9433 -0.3319 -0.0000
vn 0.0000 -0.3319 0.9433
vn 0.9433 -0.3319 0.0000
vn -0.0000 -0.3319 -0.9433
vn -0.0000 0.0000 -1.0000
vn 1.0000 0.0000 0.0000
vn 0.0000 -0.0000 1.0000
vn -1.0000 0.0000 -0.0000
vn -0.0000 0.9997 -0.0225
vn 0.0000 0.8682 0.4962
vn 0.0000 -0.9997 -0.0225
vn 0.0000 -0.8682 0.4962
vn -0.9997 -0.0000 -0.0225
vn -0.8682 -0.0000 0.4962
vn -0.9433 0.0000 -0.3319
vn 0.0000 -0.9433 -0.3319
vn 0.9433 0.0000 -0.3319
vn -0.0000 0.9433 -0.3319
vn -0.0000 1.0000 0.0000
vn 0.0000 -1.0000 -0.0000
vn -0.0225 0.0000 -0.9997
vn 0.4962 0.0000 -0.8682
vn -0.0225 0.9997 0.0000
vn 0.4962 0.8682 -0.0000
vn -0.0225 -0.9997 -0.0000
vn 0.4962 -0.8682 -0.0000
vn -0.0225 -0.0000 0.9997
vn 0.4962 0.0000 0.8682
vn -0.3319 -0.0000 0.9433
vn -0.3319 -0.9433 -0.0000
vn -0.3319 0.0000 -0.9433
vn -0.3319 0.9433 0.0000
s 1
f 1/1/1 3/2/2 2/3/1
f 2/3/3 3/4/4 4/5/3
f 4/6/5 3/7/6 5/8/5
f 5/9/7 3/10/8 1/11/7
f 6/12/9 8/13/10 7/14/9
f 9/15/11 5/9/7 1/11/7 10/16/11
f 11/17/12 4/6/5 5/8/5 9/18/12
f 12/19/13 2/3/3 4/5/3 11/20/13
f 10/21/14 1/1/1 2/3/1 12/22/14
f 13/23/15 10/21/14 12/22/14 14/24/15
f 14/25/16 12/19/13 11/20/13 15/26/16
f 15/27/17 11/17/12 9/18/12 16/28/17
f 16/29/18 9/15/11 10/16/11 13/30/18
f 17/31/19 8/32/20 6/33/19
f 7/34/21 8/35/22 18/36/21
f 18/37/23 8/38/24 17/39/23
f 19/40/25 18/37/23 17/39/23 20/41/25
f 21/42/26 7/34/21 18/36/21 19/43/26
f 22/44/27 6/12/9 7/14/9 21/45/27
f 20/46/28 17/31/19 6/33/19 22/47/28
f 23/48/29 20/46/28 22/47/28 24/49/29
f 24/50/16 22/44/27 21/45/27 25/51/16
f 25/52/30 21/42/26 19/43/26 26/53/30
f 26/54/18 19/40/25 20/41/25 23/55/18
f 27/56/31 29/57/32 28/58/31
f 30/59/33 29/60/34 27/56/33
f 28/61/35 29/62/36 31/63/35
f 31/64/37 29/65/38 30/66/37
f 32/67/39 31/64/37 30/66/37 33/68/39
f 34/69/40 28/61/35 31/63/35 32/70/40
f 35/71/41 27/56/31 28/58/31 34/72/41
f 33/73/42 30/59/33 27/56/33 35/74/42
f 36/75/29 33/73/42 35/74/42 37/76/29
f 37/77/15 35/71/41 34/72/41 38/78/15
f 38/79/30 34/69/40 32/70/40 39/80/30
f 39/81/17 32/67/39 33/68/39 36/82/17
f 40/83/15 43/84/15 42/85/15 41/86/15
f 36/87/16 37/88/16 42/89/16 44/90/16
f 13/91/29 14/92/29 42/93/29 43/94/29
f 45/95/18 46/96/18 43/84/18 40/97/18
f 41/98/30 47/99/30 45/100/30 40/101/30
f 43/94/29 46/102/29 16/103/29 13/91/29
f 15/104/29 44/105/29 42/93/29 14/92/29
f 15/104/29 16/103/29 46/102/29 44/105/29
f 41/98/16 42/89/16 37/88/16 38/106/16
f 39/107/16 47/108/16 41/98/16 38/106/16
f 44/90/16 47/108/16 39/107/16 36/87/16
f 45/109/17 47/110/17 25/111/17 26/112/17
f 25/111/17 47/110/17 44/113/17 24/114/17
f 24/114/17 44/113/17 46/115/17 23/116/17
f 45/109/17 26/112/17 23/116/17 46/115/17
