# Blender v2.91.0 OBJ File: ''
# www.blender.org
o Cone
v 0.250000 0.000000 -1.250000
v 1.116025 0.000000 0.250000
v -0.616025 0.000000 0.250000
v 0.250000 1.000000 -0.250000
v -0.250000 -0.500000 -0.750000
v 0.616025 -0.500000 0.750000
v -1.116025 -0.500000 0.750000
v -0.250000 0.500000 0.250000
vt 0.691007 0.398878
vt 0.500103 0.204460
vt 0.736074 0.068222
vt 0.999897 0.272578
vt 0.999897 0.000103
vt 0.926978 0.535115
vt 0.499897 0.272578
vt 0.426978 0.535115
vt 0.191007 0.398878
vt 0.236074 0.068222
vt 0.000103 0.204460
vt 0.499897 0.000103
vn 0.7746 0.4472 -0.4472
vn 0.0000 -1.0000 0.0000
vn 0.0000 0.4472 0.8944
vn -0.7746 0.4472 -0.4472
s off
f 1/1/1 4/2/1 2/3/1
f 1/1/2 2/3/2 3/4/2
f 2/3/3 4/5/3 3/4/3
f 3/4/4 4/6/4 1/1/4
f 5/7/1 8/8/1 6/9/1
f 5/7/2 6/9/2 7/10/2
f 6/9/3 8/11/3 7/10/3
f 7/10/4 8/12/4 5/7/4
o CONVEX_0_Cone.001
v 0.250000 0.000000 -1.250000
v 1.116025 0.000000 0.250000
v -0.616025 0.000000 0.250000
v 0.250000 1.000000 -0.250000
vt 0.250000 0.490000
vt 0.250000 0.250000
vt 0.457846 0.130000
vt 0.750000 0.490000
vt 0.957846 0.130000
vt 0.542154 0.130000
vt 0.042154 0.130000
vn 0.7746 0.4472 -0.4472
vn 0.0000 -1.0000 0.0000
vn 0.0000 0.4472 0.8944
vn -0.7746 0.4472 -0.4472
s off
f 9/13/5 12/14/5 10/15/5
f 9/16/6 10/17/6 11/18/6
f 10/15/7 12/14/7 11/19/7
f 11/19/8 12/14/8 9/13/8
o CONVEX_1_Cone.004
v -0.250000 -0.500000 -0.750000
v 0.616025 -0.500000 0.750000
v -1.116025 -0.500000 0.750000
v -0.250000 0.500000 0.250000
vt 0.250000 0.490000
vt 0.250000 0.250000
vt 0.457846 0.130000
vt 0.750000 0.490000
vt 0.957846 0.130000
vt 0.542154 0.130000
vt 0.042154 0.130000
vn 0.7746 0.4472 -0.4472
vn 0.0000 -1.0000 0.0000
vn 0.0000 0.4472 0.8944
vn -0.7746 0.4472 -0.4472
s off
f 13/20/9 16/21/9 14/22/9
f 13/23/10 14/24/10 15/25/10
f 14/22/11 16/21/11 15/26/11
f 15/26/12 16/21/12 13/20/12
