# Blender v2.91.0 OBJ File: ''
# www.blender.org
o Cube_Cube.003
v -0.159315 -0.000142 0.075968
v -0.159315 0.092336 0.075968
v -0.159315 0.092336 -0.078377
v -0.159315 -0.000142 -0.078377
v 0.183419 0.092336 -0.078377
v 0.183419 -0.000142 -0.078377
v 0.183419 0.092336 0.075968
v 0.183419 -0.000142 0.075968
v 0.107647 0.217659 0.068643
v 0.129789 0.289044 0.014182
v -0.015084 0.293505 -0.038871
v -0.037226 0.222120 0.015590
v 0.070021 0.075845 -0.289567
v 0.047879 0.004460 -0.235106
v 0.214893 0.071385 -0.236514
v 0.192751 0.000000 -0.182053
v -0.199062 0.124886 0.017097
v -0.198026 0.206701 0.060193
v -0.079462 0.251576 -0.027847
v -0.080497 0.169761 -0.070943
v 0.139935 0.126689 0.203963
v 0.138900 0.044875 0.160865
v 0.021370 0.081814 0.292003
v 0.020334 -0.000000 0.248905
vt 0.500000 0.395833
vt 0.500000 0.333430
vt 0.187500 0.333430
vt 0.187500 0.395833
vt 0.000290 0.395833
vt 0.000290 0.604167
vt 0.187500 0.604167
vt 0.187500 0.666570
vt 0.500000 0.666570
vt 0.500000 0.604167
vt 0.687500 0.604167
vt 0.687500 0.395833
vt 0.999806 0.604167
vt 0.999806 0.395833
vt 0.500000 0.729167
vt 0.500000 0.666763
vt 0.187500 0.666763
vt 0.187500 0.729167
vt 0.000386 0.729167
vt 0.000386 0.937500
vt 0.187500 0.937500
vt 0.187500 0.999903
vt 0.500000 0.999903
vt 0.500000 0.937500
vt 0.687500 0.937500
vt 0.687500 0.729167
vt 1.000000 0.937500
vt 1.000000 0.729167
vt 0.187500 0.062500
vt 0.187500 0.000097
vt 0.500000 0.000097
vt 0.500000 0.062500
vt 0.687500 0.062500
vt 0.687500 0.270833
vt 0.500000 0.270833
vt 0.500000 0.333237
vt 0.187500 0.333237
vt 0.187500 0.270833
vt 0.000290 0.270833
vt 0.000290 0.062500
vt 0.999806 0.062500
vt 0.999806 0.270833
vn -1.0000 -0.0000 0.0000
vn 0.0000 0.0000 -1.0000
vn 1.0000 0.0000 0.0000
vn 0.0000 -0.0000 1.0000
vn 0.0000 -1.0000 -0.0000
vn 0.0000 1.0000 0.0000
vn -0.2483 0.6351 0.7315
vn -0.9386 0.0289 -0.3437
vn 0.2483 -0.6351 -0.7315
vn 0.9386 -0.0289 0.3437
vn -0.2394 -0.7719 0.5889
vn 0.2394 0.7719 -0.5889
vn -0.6401 0.3644 -0.6764
vn 0.7682 0.2908 -0.5704
vn 0.6401 -0.3644 0.6763
vn -0.7682 -0.2907 0.5704
vn -0.0112 -0.8847 -0.4660
vn 0.0112 0.8847 0.4660
s off
f 1/1/1 2/2/1 3/3/1 4/4/1
f 4/4/2 3/5/2 5/6/2 6/7/2
f 6/7/3 5/8/3 7/9/3 8/10/3
f 8/10/4 7/11/4 2/12/4 1/1/4
f 4/4/5 6/7/5 8/10/5 1/1/5
f 5/13/6 3/14/6 2/12/6 7/11/6
f 9/15/7 10/16/7 11/17/7 12/18/7
f 12/18/8 11/19/8 13/20/8 14/21/8
f 14/21/9 13/22/9 15/23/9 16/24/9
f 16/24/10 15/25/10 10/26/10 9/15/10
f 12/18/11 14/21/11 16/24/11 9/15/11
f 13/27/12 11/28/12 10/26/12 15/25/12
f 17/29/13 18/30/13 19/31/13 20/32/13
f 20/32/14 19/33/14 21/34/14 22/35/14
f 22/35/15 21/36/15 23/37/15 24/38/15
f 24/38/16 23/39/16 18/40/16 17/29/16
f 20/32/17 22/35/17 24/38/17 17/29/17
f 21/34/18 19/33/18 18/41/18 23/42/18
