# Blender v2.91.0 OBJ File: ''
# www.blender.org
o Cylinder
v -0.248812 0.048777 -0.115021
v 0.252240 0.049515 -0.101183
v -0.243602 -0.050900 -0.106625
v 0.242623 -0.049381 -0.122592
v -0.258229 -0.121094 -0.052052
v 0.241868 -0.107784 -0.042243
v -0.256333 -0.124776 0.047939
v 0.248093 -0.115675 0.048521
v -0.248359 -0.040344 0.119708
v 0.249221 -0.049274 0.115029
v -0.247263 0.045720 0.130538
v 0.250342 0.045896 0.117595
v -0.250842 0.114880 0.049375
v 0.251020 0.115282 0.051181
v -0.252852 0.112096 -0.051354
v 0.250306 0.106075 -0.039018
v -0.083323 0.041544 -0.105038
v 0.088030 0.049334 -0.111246
v 0.076265 -0.045350 -0.116489
v -0.090034 -0.046778 -0.107084
v 0.087025 -0.113986 -0.051228
v -0.093538 -0.126075 -0.049439
v 0.081395 -0.111417 0.047953
v -0.080509 -0.120588 0.050566
v 0.092413 -0.045931 0.128106
v -0.084722 -0.046335 0.118263
v 0.083085 0.048368 0.117295
v -0.092384 0.054688 0.121252
v 0.081283 0.119067 0.050333
v -0.078345 0.113513 0.052500
v 0.082635 0.115377 -0.045751
v -0.089467 0.113832 -0.039279
vt 0.341844 0.471731
vt 0.158156 0.471731
vt 0.028269 0.341844
vt 0.028269 0.158156
vt 0.158156 0.028269
vt 0.341844 0.028269
vt 0.471731 0.158156
vt 0.471731 0.341844
vt 0.658156 0.471731
vt 0.841844 0.471731
vt 0.971731 0.341844
vt 0.971731 0.158156
vt 0.841844 0.028269
vt 0.658156 0.028269
vt 0.528269 0.158156
vt 0.528269 0.341844
vt 1.000000 0.833333
vt 1.000000 1.000000
vt 0.875000 1.000000
vt 0.875000 0.833333
vt 0.750000 1.000000
vt 0.750000 0.833333
vt 0.625000 1.000000
vt 0.625000 0.833333
vt 0.500000 1.000000
vt 0.500000 0.833333
vt 0.375000 1.000000
vt 0.375000 0.833333
vt 0.250000 1.000000
vt 0.250000 0.833333
vt 0.125000 1.000000
vt 0.125000 0.833333
vt 0.000000 1.000000
vt 0.000000 0.833333
vt 0.125000 0.500000
vt 0.125000 0.666667
vt 0.000000 0.666667
vt 0.000000 0.500000
vt 0.250000 0.500000
vt 0.250000 0.666667
vt 0.375000 0.500000
vt 0.375000 0.666667
vt 0.500000 0.500000
vt 0.500000 0.666667
vt 0.625000 0.500000
vt 0.625000 0.666667
vt 0.750000 0.500000
vt 0.750000 0.666667
vt 0.875000 0.500000
vt 0.875000 0.666667
vt 1.000000 0.500000
vt 1.000000 0.666667
vn 0.9994 -0.0308 -0.0144
vn -0.9999 0.0159 -0.0038
vn -0.0044 0.4246 -0.9053
vn 0.6726 0.3264 -0.6641
vn 0.5789 -0.2880 -0.7628
vn -0.0078 -0.3293 -0.9442
vn 0.6403 -0.7188 -0.2705
vn 0.0214 -0.9196 -0.3921
vn 0.6200 -0.7392 0.2632
vn 0.0229 -0.9294 0.3683
vn 0.6487 -0.3214 0.6898
vn 0.0117 -0.3735 0.9275
vn 0.6446 0.2862 0.7089
vn 0.0119 0.4002 0.9163
vn 0.6408 0.7151 0.2793
vn 0.0115 0.9333 0.3587
vn 0.6673 0.6751 -0.3146
vn 0.0063 0.9124 -0.4093
vn -0.6248 0.7125 -0.3191
vn -0.0012 0.9213 -0.3889
vn -0.0030 0.3695 -0.9292
vn -0.5987 0.3077 -0.7395
vn -0.6325 0.7331 0.2501
vn -0.0034 0.9336 0.3583
vn -0.5978 0.3051 0.7413
vn 0.0073 0.4111 0.9115
vn -0.6408 -0.2897 0.7109
vn 0.0039 -0.3868 0.9221
vn -0.6303 -0.7111 0.3113
vn 0.0175 -0.9147 0.4037
vn -0.6505 -0.6833 -0.3314
vn 0.0166 -0.9083 -0.4179
vn -0.6125 -0.2647 -0.7448
vn -0.0025 -0.3273 -0.9449
s off
f 4/1/1 2/2/1 16/3/1 14/4/1 12/5/1 10/6/1 8/7/1 6/8/1
f 1/9/2 3/10/2 5/11/2 7/12/2 9/13/2 11/14/2 13/15/2 15/16/2
s 1
f 18/17/3 2/18/4 4/19/5 19/20/6
f 19/20/6 4/19/5 6/21/7 21/22/8
f 21/22/8 6/21/7 8/23/9 23/24/10
f 23/24/10 8/23/9 10/25/11 25/26/12
f 25/26/12 10/25/11 12/27/13 27/28/14
f 27/28/14 12/27/13 14/29/15 29/30/16
f 29/30/16 14/29/15 16/31/17 31/32/18
f 31/32/18 16/31/17 2/33/4 18/34/3
f 15/35/19 32/36/20 17/37/21 1/38/22
f 32/36/20 31/32/18 18/34/3 17/37/21
f 13/39/23 30/40/24 32/36/20 15/35/19
f 30/40/24 29/30/16 31/32/18 32/36/20
f 11/41/25 28/42/26 30/40/24 13/39/23
f 28/42/26 27/28/14 29/30/16 30/40/24
f 9/43/27 26/44/28 28/42/26 11/41/25
f 26/44/28 25/26/12 27/28/14 28/42/26
f 7/45/29 24/46/30 26/44/28 9/43/27
f 24/46/30 23/24/10 25/26/12 26/44/28
f 5/47/31 22/48/32 24/46/30 7/45/29
f 22/48/32 21/22/8 23/24/10 24/46/30
f 3/49/33 20/50/34 22/48/32 5/47/31
f 20/50/34 19/20/6 21/22/8 22/48/32
f 1/51/22 17/52/21 20/50/34 3/49/33
f 17/52/21 18/17/3 19/20/6 20/50/34
